<svg xmlns="http://www.w3.org/2000/svg" xmlns:xlink="http://www.w3.org/1999/xlink" id="Layer_1" x="10" y="10" version="1.1" viewBox="0 0 198.7 91.6" xml:space="preserve" style="enable-background:new 0 0 198.7 91.6"><style type="text/css">.st0{clip-path:url(#SVGID_4_)}.st1{enable-background:new}.st2{fill:#002060}.st3{fill:red}.st4{stroke-width:.96}.st4,.st5{fill:none;stroke:red;stroke-miterlimit:8}</style><title>Asset 1</title><g id="Layer_2_1_"><g id="Layer_1-2"><g><defs><rect id="SVGID_1_" width="457.9" height="98.3" x="-.7" y="-1.4"/></defs><clipPath id="SVGID_2_"><use xlink:href="#SVGID_1_" style="overflow:visible"/></clipPath></g><g><defs><rect id="SVGID_3_" width="457.9" height="98.3" x="-.7" y="-22.4"/></defs><clipPath id="SVGID_4_"><use xlink:href="#SVGID_3_" style="overflow:visible"/></clipPath><g class="st0"><g class="st1"><path d="M4,44.2l3.1-3.4L26.9,18l2.2-2.6c0.6-0.8,1.5-1.8,2.7-3.2c2.7,0,4.7,0,6,0c2.2,0,4.3,0,6.1,0L44,22 l0.6,18.8l0.2,3.4c-2.7,0-4.3,0-4.9,0c-1.3,0-3.3,0-5.8,0c0.2-2.6,0.2-5.6,0.1-9.1H22.4c-2.3,2.8-4.7,5.8-7.3,9.1 c-2.9,0-4.7,0-5.3,0C8.6,44.2,6.7,44.2,4,44.2z M27.6,28.3h7.3c0-5.5,0.1-8.6,0.1-9.1c-1.8,2.3-3.3,4.2-4.5,5.6L27.6,28.3z" class="st2"/></g><g class="st1"><path d="M47.5,44.2c5.1-12.6,8.8-22.2,11.1-29l1-3c2.7,0,4.6,0,5.5,0c0.4,0,2.1,0,5.1,0c-1.5,3.5-2.8,6.9-4.1,10 c-1.7,4.4-3.2,8.5-4.6,12.3c-1.4,3.8-2.5,7.1-3.4,9.8l-4.8,0C52.3,44.2,50.4,44.2,47.5,44.2z" class="st2"/><path d="M63.7,43.7c0.9-3.3,1.6-6,2-8c1.5,0.8,2.9,1.3,4.1,1.6c1.3,0.3,2.4,0.5,3.5,0.5c1.4,0,2.5-0.2,3.5-0.6 c0.9-0.4,1.5-1,1.8-1.8c0.1-0.3,0.1-0.5,0.1-0.8c0-0.2-0.1-0.5-0.2-0.8c-0.1-0.3-0.3-0.6-0.6-1L74.8,29 c-0.7-0.9-1.2-1.5-1.5-1.9c-0.6-0.8-1-1.5-1.2-2.2c-0.2-0.7-0.3-1.4-0.3-2.1c0-0.7,0.2-1.5,0.4-2.3c0.3-1,0.8-1.9,1.4-2.8 c0.6-0.9,1.4-1.8,2.4-2.6c0.9-0.8,2.1-1.5,3.4-2.1c1.3-0.6,2.6-1,4-1.2c1.3-0.2,2.7-0.3,4-0.3c2.6,0,5.4,0.3,8.3,0.9 c-0.3,1.1-0.6,2.1-0.8,3c-0.2,0.9-0.6,2.5-1.1,4.7c-1.2-0.6-2.4-1-3.5-1.2c-1.1-0.2-2.1-0.3-3-0.3c-1.2,0-2.3,0.2-3.3,0.7 c-1,0.5-1.6,1-1.8,1.7c-0.1,0.3-0.1,0.6-0.1,0.9c0,0.3,0.1,0.6,0.4,1c0.2,0.4,0.5,0.8,0.9,1.3c0.4,0.5,1,1.2,1.9,2.1l1.2,1.3 c0.4,0.4,0.7,0.9,1.1,1.5c0.4,0.6,0.7,1.1,0.9,1.7c0.2,0.6,0.4,1.1,0.5,1.5s0.1,0.9,0,1.4c-0.1,0.5-0.2,1-0.4,1.5 c-0.5,1.4-1.3,2.7-2.4,4c-1.1,1.3-2.4,2.3-3.9,3.1c-1.5,0.8-3.1,1.4-4.7,1.7c-1.6,0.3-3.2,0.5-4.8,0.5 C70.4,44.8,67.3,44.5,63.7,43.7z" class="st2"/><path d="M120.8,36.4c-0.5,0.9-1.2,2.2-2,3.9c-0.8,1.6-1.4,2.9-1.8,3.8c-3.5,0.5-6.6,0.8-9.2,0.8 c-2.5,0-4.8-0.3-6.8-1c-2-0.6-3.6-1.7-5-3.1s-2.1-3.1-2.2-5.1c-0.1-2,0.2-4.1,1-6.6c1-2.8,2.3-5.4,4.2-7.6 c1.8-2.3,4-4.1,6.5-5.7c2.5-1.5,5-2.6,7.6-3.2c2.6-0.6,5.1-1,7.7-1c2.3,0,5.1,0.3,8.3,0.9l-0.6,2c-0.3,0.9-0.5,1.8-0.8,2.8 l-0.7,2.7c-1.7-0.4-3.1-0.7-4.1-0.9c-1.1-0.2-2.1-0.2-3.1-0.2c-2.1,0-4.2,0.4-6.1,1.3c-2,0.8-3.7,2.1-5.2,3.7 c-1.5,1.6-2.6,3.4-3.3,5.4c-0.6,1.8-0.7,3.3-0.3,4.6c0.4,1.3,1.2,2.3,2.3,3c1.2,0.7,2.7,1,4.8,1c1.1,0,2.3-0.1,3.7-0.3 C116.9,37.3,118.6,36.9,120.8,36.4z" class="st2"/><path d="M122.6,44.2c1.8-4,3.2-7.4,4.3-10.1s2.5-6.3,4.2-10.9c1.7-4.5,2.8-7.5,3.3-9l0.7-2.1c3.7,0,8.1,0,13.4,0 c4.8,0,9.1,0,12.8,0l-0.3,0.8c-0.1,0.2-0.3,0.9-0.8,2l-1,2.5c-0.2,0.5-0.4,1.1-0.6,1.7c-3-0.1-5.5-0.2-7.5-0.2 c-2.3,0-3.8,0-4.6,0c-0.8,0-2,0-3.7,0.1l-2.1,5.4c1.8,0,4,0.1,6.4,0.1c0.9,0,3.2-0.1,7.1-0.2c-0.8,2-1.8,4.4-2.9,7.2 c-2.7,0-4.8,0-6.2,0c-2.2,0-4.6,0.1-7.3,0.2l-2.2,5.7h2.7c0.8,0,2.5,0,5-0.1l4.9-0.1c0.7,0,2-0.1,3.7-0.2 c-1,2.3-1.9,4.7-2.9,7.2c-3.8,0-8,0-12.5,0l-10.3,0L122.6,44.2z" class="st2"/><path d="M154.3,44.2c1.2-2.8,2.3-5.2,3.2-7.4c0.9-2.2,1.9-4.8,3-7.7c1.1-2.9,2.2-6,3.4-9.2c1.2-3.2,2-5.8,2.7-7.7 c1.9,0,3.5,0.1,4.7,0.1c1.3,0,2.8,0,4.6-0.1c1.8-0.1,3.6-0.1,5.3-0.1c2,0,3.8,0.1,5.3,0.2c1.1,0.1,2.1,0.3,3,0.7s1.5,0.8,2,1.3 c0.5,0.5,0.9,1,1.1,1.7c0.2,0.6,0.3,1.3,0.3,2.1c0,0.8-0.2,1.7-0.5,2.6c-0.4,1-0.8,2-1.4,2.9c-0.6,0.9-1.3,1.8-2.1,2.6 c-0.8,0.8-1.8,1.5-2.9,2.1c-1.1,0.6-2.5,1.2-4.3,1.8l0.2,3c0.1,0.8,0.1,1.7,0.2,2.5l0.8,6.9c0,0.3,0.1,0.9,0.2,1.8 c-2.6,0-4.3,0-5.2,0c-1.1,0-3,0-5.6,0c0-0.8,0.1-2.3,0.2-4.5c0-0.9,0.1-1.6,0-2.1c0-1.1,0-2.7-0.1-4.7l-0.2-6.6 c0.8,0.2,1.6,0.2,2.4,0.2c1.1,0,2.2-0.2,3.3-0.5c1-0.3,1.9-0.9,2.6-1.6c0.7-0.7,1.2-1.5,1.5-2.3c0.2-0.7,0.2-1.3,0.1-1.8 c-0.2-0.5-0.6-0.9-1.3-1.1c-0.7-0.3-1.8-0.4-3.5-0.4c-0.5,0-1.1,0-1.7,0c-0.6,0-1.3,0-2.1,0.1c-1.3,3.2-2.8,7.1-4.5,11.7 c-1.7,4.6-3.3,9.1-4.9,13.6c-2.6,0-4.3,0-5.1,0C158.3,44.2,156.6,44.2,154.3,44.2z" class="st2"/></g></g></g><g><defs><rect id="SVGID_5_" width="457.9" height="98.3" x="-.7" y="-1.4"/></defs><clipPath id="SVGID_6_"><use xlink:href="#SVGID_5_" style="overflow:visible"/></clipPath></g><polygon points="182.8 62.5 5.4 56.6 182.8 51.4 182.8 62.5" class="st3"/><polygon points="182.8 62.5 5.4 56.6 182.8 51.4 182.8 62.5" class="st4"/><polygon points="183.8 44.8 194 54.9 150.3 88.9 183.8 44.8" class="st3"/><polygon points="183.8 44.8 194 54.9 150.3 88.9 183.8 44.8" class="st5"/></g></g></svg>